# xmcd CD database file
#
# Track frame offsets:
#	150
#	18502
#	40990
#	58827
#	80085
#	99707
#	123095
#	142292
#	162157
#	182800
#	202122
#	220835
#	242472
#	266337
#	293130
#	312725
#
# Disc length: 4419 seconds
#
# Revision: 0
# Processed by: cddbd v1.5.1PL0 Copyright (c) Steve Scherf et al.
# Submitted via: CDex 1.51
#
DISCID=f5114110
DTITLE=Various Artist - アニメわん 〜 VictorAnimeSongCollection I 〜
DYEAR=2005
DGENRE=Anime
TTITLE0=MIO/OBLIVION
TTITLE1=真行寺恵里/IN MY DREAM
TTITLE2=Fire Bomber/DYNAMITE EXPLOSION
TTITLE3=ANZA/扉をあけて
TTITLE4=有坂美香/dis- (CLUB MIX Version)
TTITLE5=坂本真綾/バイク
TTITLE6=新居昭乃/きれいな感情
TTITLE7=JAM Project/SOULTAKER
TTITLE8=葉菜(Bana)/Shell
TTITLE9=YUKA/未来の記憶
TTITLE10=坂本真綾/ヘミソフィア
TTITLE11=See-Saw/あんなに一緒だったのに
TTITLE12=steve conte/stray
TTITLE13=OKINO,SHUNTARO/Cloud Age Symphony
TTITLE14=ALI PROJECT/月蝕グランギニョル
TTITLE15=lisa/Will
EXTD=YEAR: 2005
EXTT0=
EXTT1=
EXTT2=
EXTT3=
EXTT4=
EXTT5=
EXTT6=
EXTT7=
EXTT8=
EXTT9=
EXTT10=
EXTT11=
EXTT12=
EXTT13=
EXTT14=
EXTT15=
PLAYORDER=
